<svg xmlns="http://www.w3.org/2000/svg" viewBox="0 0 143 30"><path d="M20.7025457 14.4230769h6.8276148v11.1538462c-1.5606055 1.1025696-3.3552749 1.948715-5.384062 2.5384615C20.1173114 28.7051312 18.0885547 29 16.0597676 29c-2.8611101 0-5.4360705-.5961479-7.7249585-1.7884615-2.2888881-1.1923137-4.0835574-2.8525535-5.384062-4.9807693C1.6502425 20.1025535 1 17.6923212 1 15c0-2.6923212.6502425-5.1025535 1.9507471-7.2307692C4.2512517 5.641015 6.0589259 3.98077519 8.373824 2.78846154 10.6887221 1.59614788 13.3026971 1 16.2158273 1c2.548989 0 4.8378427.42307269 6.8666298 1.26923077 2.0287871.84615808 3.7194177 2.06409461 5.0719425 3.65384613l-4.9158827 4.3846154c-1.8467165-2.00001-4.0575411-3-6.6325401-3-2.3409083 0-4.2266116.698711-5.6571666 2.0961539C9.5182552 10.801289 8.8029884 12.666655 8.8029884 15c0 1.4871869.3251212 2.8140967.9753735 3.9807692.6502523 1.1666725 1.5605918 2.0769198 2.731046 2.7307693 1.1704541.6538494 2.5099537.9807692 4.018539.9807692 1.4825752 0 2.8740942-.2948689 4.1745988-.8846154v-7.3846154zm23.6820697 6.8846154h-4.2136137v7.1538462h-7.7249585V1.53846154h12.4847814c2.4709586 0 4.616759.40384211 6.4374654 1.21153846 1.820706.80769635 3.22523 1.96153096 4.213614 3.4615385C56.570287 7.711546 57.064471 9.4743488 57.064471 11.5c0 1.9487277-.461672 3.6474287-1.38503 5.0961538C54.756083 18.044879 53.43609 19.1794831 51.719424 20l5.891257 8.4615385h-8.271168l-4.9548976-7.1538462zM49.2614831 11.5c0-1.2564165-.4031503-2.2307658-1.2094632-2.9230769-.8063128-.6923112-2.0027591-1.0384616-3.5893746-1.0384616h-4.2916436v7.8846154h4.2916436c1.5866155 0 2.7830618-.3397402 3.5893746-1.0192307.8063129-.6794906 1.2094632-1.6474297 1.2094632-2.9038462zM69.042059 7.4230769v5.9230769h12.055617v5.8846154H69.042059v9.2307693H61.3171V1.53846154h21.419203V7.4230769H69.042059zm19.702545 21.3846154c-1.248484 0-2.301877-.4102523-3.16021-1.2307692-.858333-.8205169-1.287493-1.8589681-1.287493-3.1153846 0-1.2820577.422658-2.3205089 1.267986-3.1153847.845328-.7948757 1.905223-1.1923076 3.179717-1.1923076 1.300505 0 2.366903.3974319 3.199226 1.1923076.832322.7948758 1.248478 1.833327 1.248478 3.1153847 0 1.2564165-.422658 2.2948677-1.267986 3.1153846-.845328.8205169-1.905223 1.2307692-3.179718 1.2307692zm8.271168-27.26923076h7.724958V28.4615385h-7.724958V1.53846154zm37.883509 26.92307696l-.07803-14.2692308-7.02269 11.6153846h-3.433315l-6.983674-11.2307692v13.8846154h-7.139735V1.53846154h6.359436l9.597676 15.53846156 9.363586-15.53846156h6.359435L142 28.4615385h-7.100719z"/></svg>