<svg xmlns="http://www.w3.org/2000/svg" viewBox="0 0 14 15"><path d="M12.3437325 8.1825c.0287781-.224.0503617-.4515.0503617-.6825 0-.231-.0215836-.4585-.0503617-.6825l1.5216418-1.1585c.1366959-.105.1762658-.294.0863343-.448l-1.4389048-2.4255c-.0899315-.1505-.2769891-.2135-.4388659-.1505l-1.7914364.7035c-.37051801-.2765-.7770086-.511-1.21587455-.6895L8.79683231.794C8.76445695.6295 8.61696921.5 8.43710612.5h-2.8778095c-.1798631 0-.32735083.1295-.35612893.294l-.26979464 1.855c-.43886595.1785-.84535654.4095-1.21587451.6895L1.92606212 2.635c-.16187678-.0595-.3489344 0-.43886595.1505L.04829142 5.211c-.08993154.1505-.05036166.3395.08633429.448l1.51804451 1.1585c-.0287781.224-.05036167.4515-.05036167.6825 0 .231.02158357.4585.05036167.6825L.13462571 9.341c-.13669595.105-.17626583.294-.08633429.448l1.43890475 2.4255c.08993155.1505.27698917.2135.43886595.1505l1.79143642-.7035c.37051797.2765.77700856.511 1.21587451.6895l.26979464 1.855c.0287781.1645.17626583.294.35612893.294h2.8778095c.17986309 0 .32735083-.1295.35612893-.294l.26979464-1.855c.43886595-.1785.84535654-.4095 1.21587451-.6895l1.7914364.7035c.1618768.0595.3489344 0 .438866-.1505l1.4389047-2.4255c.0899316-.1505.0503617-.3395-.0863343-.448l-1.5180445-1.1585zM6.99820137 9.95c-1.39214035 0-2.51808332-1.0955-2.51808332-2.45 0-1.3545 1.12594297-2.45 2.51808332-2.45S9.51628468 6.1455 9.51628468 7.5c0 1.3545-1.12594296 2.45-2.51808331 2.45z"/></svg>