<?xml version="1.0" encoding="UTF-8"?>
<svg width="160px" height="160px" viewBox="0 0 160 160" version="1.1" xmlns="http://www.w3.org/2000/svg" xmlns:xlink="http://www.w3.org/1999/xlink">
    <!-- Generator: Sketch 49.1 (51147) - http://www.bohemiancoding.com/sketch -->
    <title>–-</title>
    <desc>Created with Sketch.</desc>
    <defs>
        <path d="M36.1793721,84 L0.0982616946,84 C0.0330093667,82.6748888 0,81.3412993 0,80 L36,80 C36,81.3483588 36.0606505,82.6825519 36.1793721,84 Z M124,80 L160,80 C160,81.3412991 159.966991,82.6748884 159.90174,84 L123.820628,84 C123.93935,82.6825519 124,81.3483588 124,80 Z M37.6562599,92 C42.879691,110.468038 59.859566,124 80,124 C100.140434,124 117.120309,110.468038 122.34374,92 L159.105993,92 C158.903031,93.3492965 158.666367,94.6875553 158.396889,96.0138939 C150.979195,132.522817 118.698418,160 80,160 C39.9354611,160 6.74966756,130.54859 0.911304667,92.1144541 C0.905510602,92.0763116 0.899743472,92.0381602 0.894003296,92 L37.6562599,92 Z M36.7255049,72 L0.395004682,72 C0.532451518,70.6156205 0.705192074,69.2416237 0.912311305,67.8789211 C6.75348111,29.4480261 39.937763,0 80,0 C118.707327,0 150.994058,27.4898363 158.402008,64.0113223 C158.933185,66.6300476 159.33645,69.2952084 159.604998,72 L123.274495,72 C119.512444,51.5190557 101.568557,36 80,36 C58.431443,36 40.4875556,51.5190557 36.7255049,72 Z" id="path-1"></path>
        <path d="M0,76.9677419 L97.3439892,76.9677419 L97.3439892,86.8387097 L0,86.8387097 L0,76.9677419 Z M109.025268,76 L159.803673,76 C159.934558,78.0042319 160,80.0042319 160,82 C160,83.9957681 159.934558,85.9957681 159.803673,88 L109.025268,88 L109.025268,76 Z" id="path-3"></path>
    </defs>
    <g id="Page-1" stroke="none" stroke-width="1" fill="none" fill-rule="evenodd">
        <g id="Artboard-3">
            <g id="logo">
                <g id="–-">
                    <mask id="mask-2" fill="white">
                        <use xlink:href="#path-1"></use>
                    </mask>
                    <use id="Combined-Shape" fill="#000000" xlink:href="#path-1"></use>
                    <mask id="mask-4" fill="white">
                        <use xlink:href="#path-3"></use>
                    </mask>
                    <use fill="#000000" xlink:href="#path-3"></use>
                </g>
            </g>
        </g>
    </g>
</svg>