<?xml version="1.0" encoding="UTF-8"?>
<svg width="564px" height="112px" viewBox="0 0 564 112" version="1.1" xmlns="http://www.w3.org/2000/svg" xmlns:xlink="http://www.w3.org/1999/xlink">
    <!-- Generator: Sketch 49.1 (51147) - http://www.bohemiancoding.com/sketch -->
    <title>logo</title>
    <desc>Created with Sketch.</desc>
    <defs></defs>
    <g id="Page-1" stroke="none" stroke-width="1" fill="none" fill-rule="evenodd">
        <g id="Artboard-3" transform="translate(-200.000000, -24.000000)" fill="#000000">
            <g id="logo">
                <path d="M278.810183,77.6923077 L306.120642,77.6923077 L306.120642,122.307692 C299.87822,126.717971 292.699543,130.102552 284.584394,132.461538 C276.469246,134.820525 268.354219,136 260.23907,136 C248.79463,136 238.494788,133.615408 229.339236,128.846154 C220.183684,124.076899 213.005007,117.43594 207.802988,108.923077 C202.60097,100.410214 200,90.7692846 200,80 C200,69.2307154 202.60097,59.5897862 207.802988,51.0769231 C213.005007,42.56406 220.235704,35.9231008 229.495296,31.1538462 C238.754889,26.3845915 249.210788,24 260.863309,24 C271.059265,24 280.21468,25.6922908 288.329828,29.0769231 C296.444977,32.4615554 303.207499,37.3333015 308.617598,43.6923077 L288.954068,61.2307692 C281.567202,53.2307292 272.723903,49.2307692 262.423907,49.2307692 C253.060274,49.2307692 245.517461,52.0256131 239.795241,57.6153846 C234.073021,63.2051562 231.211954,70.66662 231.211954,80 C231.211954,85.9487477 232.512439,91.2563869 235.113448,95.9230769 C237.714457,100.589767 241.355815,104.230756 246.037631,106.846154 C250.719448,109.461552 256.077446,110.769231 262.111787,110.769231 C268.042088,110.769231 273.608164,109.589755 278.810183,107.230769 L278.810183,77.6923077 Z M373.538462,105.230769 L356.684007,105.230769 L356.684007,133.846154 L325.784173,133.846154 L325.784173,26.1538462 L375.723298,26.1538462 C385.607133,26.1538462 394.190334,27.7692146 401.47316,31 C408.755986,34.2307854 414.374081,38.8461238 418.327615,44.8461538 C422.281149,50.8461838 424.257886,57.8973954 424.257886,66 C424.257886,73.7949108 422.411197,80.5897146 418.717764,86.3846154 C415.024331,92.1795162 409.744362,96.7179323 402.877698,100 L426.442723,133.846154 L393.358052,133.846154 L373.538462,105.230769 Z M393.045932,66 C393.045932,60.9743338 391.433331,57.0769369 388.20808,54.3076923 C384.982828,51.5384477 380.197043,50.1538462 373.850581,50.1538462 L356.684007,50.1538462 L356.684007,81.6923077 L373.850581,81.6923077 C380.197043,81.6923077 384.982828,80.3333469 388.20808,77.6153846 C391.433331,74.8974223 393.045932,71.0256662 393.045932,66 Z M472.168235,49.6923077 L472.168235,73.3846154 L520.390703,73.3846154 L520.390703,96.9230769 L472.168235,96.9230769 L472.168235,133.846154 L441.268401,133.846154 L441.268401,26.1538462 L526.945213,26.1538462 L526.945213,49.6923077 L472.168235,49.6923077 Z M550.978417,135.230769 C545.98448,135.230769 541.770908,133.58976 538.337576,130.307692 C534.904244,127.025625 533.187604,122.87182 533.187604,117.846154 C533.187604,112.717923 534.878234,108.564118 538.259546,105.384615 C541.640858,102.205112 545.880439,100.615385 550.978417,100.615385 C556.180436,100.615385 560.446027,102.205112 563.775318,105.384615 C567.10461,108.564118 568.769231,112.717923 568.769231,117.846154 C568.769231,122.87182 567.0786,127.025625 563.697288,130.307692 C560.315976,133.58976 556.076395,135.230769 550.978417,135.230769 Z M584.063088,26.1538462 L614.962922,26.1538462 L614.962922,133.846154 L584.063088,133.846154 L584.063088,26.1538462 Z M735.597122,133.846154 L735.285003,76.7692308 L707.194245,123.230769 L693.460985,123.230769 L665.526287,78.3076923 L665.526287,133.846154 L636.967349,133.846154 L636.967349,26.1538462 L662.405091,26.1538462 L700.795794,88.3076923 L738.250138,26.1538462 L763.68788,26.1538462 L764,133.846154 L735.597122,133.846154 Z"></path>
            </g>
        </g>
    </g>
</svg>