<svg xmlns="http://www.w3.org/2000/svg" xmlns:xlink="http://www.w3.org/1999/xlink" viewBox="0 0 40 40"><defs><path id="a" d="M0 19.2419355h24.3359973v2.4677419H0v-2.4677419zM27.256317 19h12.6946012C39.9836394 19.501058 40 20.001058 40 20.5s-.0163606.998942-.0490818 1.5H27.256317v-3z"/></defs><g fill-rule="evenodd"><path d="M4.51228271 20.5H.02456542v.5l.49939489-.0245917C.50800383 20.6513723.5 20.3261739.5 20H0v.5h4.51228271zm0 0H9V20h-.5c0 .3503653.01568263.6988918.0468609 1.0448756L9.04484302 21v-.5H4.51228271zm30.97543479 0H40V20h-.5c0 .3261719-.0080037.6513704-.0239599.975409L39.975435 21v-.5h-4.4877175zm0 0H30.955157v.5l.4979821.0448756C31.4843174 20.6988918 31.5 20.3503653 31.5 20H31v.5h4.4877175zm-26.4453316 3H.81310028C2.47632263 32.6880101 10.5171384 39.5 20 39.5c9.3145962 0 17.2774912-6.5804837 19.1092332-15.5960799.0272842-.1342892.0531587-.2689347.0776174-.4039201h-8.2292365c-1.5038535 4.7165255-5.9075817 8-10.9576141 8-5.0500324 0-9.4537606-3.2834745-10.9576141-8zm-.26982708-6C9.92610283 12.2913161 14.5690072 8.5 20 8.5c5.4309928 0 10.0738972 3.7913161 11.2274412 9h8.1138517c-.0600876-.4696379-.1371023-.9357814-.2308121-1.3977745C37.2811788 7.08369397 29.3168995.5 20 .5 10.3306784.5 2.16059546 7.58252673.72240065 17.0448631c-.0230022.1513387-.04423579.3030583-.06369339.4551369h8.11385156z"/><use xlink:href="#a"/></g></svg>