<?xml version="1.0" encoding="UTF-8"?>
<svg width="14px" height="15px" viewBox="0 0 14 15" version="1.1" xmlns="http://www.w3.org/2000/svg" xmlns:xlink="http://www.w3.org/1999/xlink">
    <!-- Generator: Sketch 49.1 (51147) - http://www.bohemiancoding.com/sketch -->
    <title>Shape</title>
    <desc>Created with Sketch.</desc>
    <defs></defs>
    <g id="Page-1" stroke="none" stroke-width="1" fill="none" fill-rule="evenodd" opacity="0.5">
        <g id="home-static" transform="translate(-390.000000, -411.000000)" fill="#FFFFFF" fill-rule="nonzero">
            <g id="body" transform="translate(390.000000, 291.000000)">
                <g id="Group-2">
                    <g id="body" transform="translate(0.000000, 79.000000)">
                        <g id="form">
                            <g id="Group" transform="translate(0.000000, 39.000000)">
                                <path d="M12.3437325,10.1825 C12.3725106,9.9585 12.3940942,9.731 12.3940942,9.5 C12.3940942,9.269 12.3725106,9.0415 12.3437325,8.8175 L13.8653743,7.659 C14.0020702,7.554 14.0416401,7.365 13.9517086,7.211 L12.5128038,4.7855 C12.4228723,4.635 12.2358147,4.572 12.0739379,4.635 L10.2825015,5.3385 C9.91198349,5.062 9.5054929,4.8275 9.06662695,4.649 L8.79683231,2.794 C8.76445695,2.6295 8.61696921,2.5 8.43710612,2.5 L5.55929662,2.5 C5.37943352,2.5 5.23194579,2.6295 5.20316769,2.794 L4.93337305,4.649 C4.4945071,4.8275 4.08801651,5.0585 3.71749854,5.3385 L1.92606212,4.635 C1.76418534,4.5755 1.57712772,4.635 1.48719617,4.7855 L0.048291422,7.211 C-0.0416401249,7.3615 -0.00207024426,7.5505 0.134625707,7.659 L1.65267022,8.8175 C1.62389212,9.0415 1.60230855,9.269 1.60230855,9.5 C1.60230855,9.731 1.62389212,9.9585 1.65267022,10.1825 L0.134625707,11.341 C-0.00207024426,11.446 -0.0416401249,11.635 0.048291422,11.789 L1.48719617,14.2145 C1.57712772,14.365 1.76418534,14.428 1.92606212,14.365 L3.71749854,13.6615 C4.08801651,13.938 4.4945071,14.1725 4.93337305,14.351 L5.20316769,16.206 C5.23194579,16.3705 5.37943352,16.5 5.55929662,16.5 L8.43710612,16.5 C8.61696921,16.5 8.76445695,16.3705 8.79323505,16.206 L9.06302969,14.351 C9.50189564,14.1725 9.90838623,13.9415 10.2789042,13.6615 L12.0703406,14.365 C12.2322174,14.4245 12.419275,14.365 12.5092066,14.2145 L13.9481113,11.789 C14.0380429,11.6385 13.998473,11.4495 13.861777,11.341 L12.3437325,10.1825 Z M6.99820137,11.95 C5.60606102,11.95 4.48011805,10.8545 4.48011805,9.5 C4.48011805,8.1455 5.60606102,7.05 6.99820137,7.05 C8.39034172,7.05 9.51628468,8.1455 9.51628468,9.5 C9.51628468,10.8545 8.39034172,11.95 6.99820137,11.95 Z" id="Shape"></path>
                            </g>
                        </g>
                    </g>
                </g>
            </g>
        </g>
    </g>
</svg>